HIERARCHY
ROOT Hips
{
	OFFSET 0.000000 0.000000 0.000000
	CHANNELS 6 Xposition Yposition Zposition Xrotation Yrotation Zrotation
	JOINT LeftUpLeg_virtual
	{
		OFFSET 0.000000 0.000000 0.000000
		CHANNELS 3 Xrotation Yrotation Zrotation
		JOINT LeftUpLeg
		{
			OFFSET 11.394100 -6.187798 -0.413800
			CHANNELS 3 Xrotation Yrotation Zrotation
			JOINT LeftLeg
			{
				OFFSET 0.430247 -32.302673 3.732800
				CHANNELS 3 Xrotation Yrotation Zrotation
				JOINT LeftFoot
				{
					OFFSET -0.430247 -48.264931 -6.423300
					CHANNELS 3 Xrotation Yrotation Zrotation
					JOINT LeftToeBase
					{
						OFFSET 4.230900 -16.068199 23.438400
						CHANNELS 3 Xrotation Yrotation Zrotation
						JOINT LeftToe_End
						{
							OFFSET 4.510700 0.695400 19.974600
							CHANNELS 3 Xrotation Yrotation Zrotation
							End Site
							{
								OFFSET 0 0 0
							}
						}
					}
				}
			}
		}
	}
	JOINT RightUpLeg_virtual
	{
		OFFSET 0.000000 0.000000 0.000000
		CHANNELS 3 Xrotation Yrotation Zrotation
		JOINT RightUpLeg
		{
			OFFSET -11.333700 -6.187798 -0.413800
			CHANNELS 3 Xrotation Yrotation Zrotation
			JOINT RightLeg
			{
				OFFSET -0.430392 -32.302628 3.733000
				CHANNELS 3 Xrotation Yrotation Zrotation
				JOINT RightFoot
				{
					OFFSET 0.430392 -48.264973 -6.423500
					CHANNELS 3 Xrotation Yrotation Zrotation
					JOINT RightToeBase
					{
						OFFSET -4.230900 -16.068199 23.438400
						CHANNELS 3 Xrotation Yrotation Zrotation
						JOINT RightToe_End
						{
							OFFSET -4.510700 0.695400 19.974600
							CHANNELS 3 Xrotation Yrotation Zrotation
							End Site
							{
								OFFSET 0 0 0
							}
						}
					}
				}
			}
		}
	}
	JOINT Spine_virtual
	{
		OFFSET 0.000000 0.000000 0.000000
		CHANNELS 3 Xrotation Yrotation Zrotation
		JOINT Spine
		{
			OFFSET -0.002400 12.777504 0.315300
			CHANNELS 3 Xrotation Yrotation Zrotation
			JOINT Spine1
			{
				OFFSET -0.002067 5.816869 0.032633
				CHANNELS 3 Xrotation Yrotation Zrotation
				JOINT Spine1_split
				{
					OFFSET -0.002067 5.816869 0.032633
					CHANNELS 3 Xrotation Yrotation Zrotation
					JOINT Spine2
					{
						OFFSET -0.002067 5.816869 0.032633
						CHANNELS 3 Xrotation Yrotation Zrotation
						JOINT Neck_virtual
						{
							OFFSET 0.000000 0.000000 0.000000
							CHANNELS 3 Xrotation Yrotation Zrotation
							JOINT Neck
							{
								OFFSET -0.003700 21.199493 -0.826900
								CHANNELS 3 Xrotation Yrotation Zrotation
								JOINT Head
								{
									OFFSET 0.000000 20.442200 4.834800
									CHANNELS 3 Xrotation Yrotation Zrotation
									JOINT HeadTop_End
									{
										OFFSET 0.000000 34.668396 4.968400
										CHANNELS 3 Xrotation Yrotation Zrotation
										End Site
										{
											OFFSET 0 0 0
										}
									}
								}
							}
						}
						JOINT LeftShoulder_virtual
						{
							OFFSET 0.000000 0.000000 0.000000
							CHANNELS 3 Xrotation Yrotation Zrotation
							JOINT LeftShoulder
							{
								OFFSET 3.288150 8.794197 -1.372250
								CHANNELS 3 Xrotation Yrotation Zrotation
								JOINT LeftShoulder_split
								{
									OFFSET 3.288150 8.794197 -1.372250
									CHANNELS 3 Xrotation Yrotation Zrotation
									JOINT LeftArm
									{
										OFFSET 11.953299 -2.279007 -0.146200
										CHANNELS 3 Xrotation Yrotation Zrotation
										JOINT LeftForeArm
										{
											OFFSET 18.448900 0.000000 0.000000
											CHANNELS 3 Xrotation Yrotation Zrotation
											JOINT LeftHand
											{
												OFFSET 29.527798 0.000000 0.000000
												CHANNELS 3 Xrotation Yrotation Zrotation
												End Site
												{
													OFFSET 0 0 0
												}
											}
										}
									}
								}
							}
						}
						JOINT RightShoulder_virtual
						{
							OFFSET 0.000000 0.000000 0.000000
							CHANNELS 3 Xrotation Yrotation Zrotation
							JOINT RightShoulder
							{
								OFFSET -3.249400 8.794197 -1.372250
								CHANNELS 3 Xrotation Yrotation Zrotation
								JOINT RightShoulder_split
								{
									OFFSET -3.249400 8.794197 -1.372250
									CHANNELS 3 Xrotation Yrotation Zrotation
									JOINT RightArm
									{
										OFFSET -11.953299 -2.279007 -0.146200
										CHANNELS 3 Xrotation Yrotation Zrotation
										JOINT RightForeArm
										{
											OFFSET -18.448900 0.000000 0.000000
											CHANNELS 3 Xrotation Yrotation Zrotation
											JOINT RightHand
											{
												OFFSET -29.527802 0.000000 0.000000
												CHANNELS 3 Xrotation Yrotation Zrotation
												End Site
												{
													OFFSET 0 0 0
												}
											}
										}
									}
								}
							}
						}
					}
				}
			}
		}
	}
}
MOTION
Frames: 9
Frame Time: 0.03333333
2.236545 102.003929 -3.515301 0.000000 0.000000 0.000000 -0.278911 -15.130944 -0.274479 -21.975253 19.412405 16.659301 25.223868 13.638564 0.163872 7.248839 -1.327415 -5.392773 -4.399721 0.454511 0.025762 0.000000 0.000000 0.000000 0.451201 -14.555147 -0.680620 -11.896082 -2.882806 1.732679 24.232632 1.011470 1.310777 -5.368736 -0.148073 -5.270054 1.637830 -0.983648 3.924983 0.000000 0.000000 0.000000 -1.010258 -17.947722 -1.627215 3.388361 -0.863182 0.213034 0.451530 -0.353833 3.217243 -0.177241 1.965594 -0.170570 0.000000 0.000000 0.000000 0.602861 -1.682729 2.763847 4.376407 -7.033606 -2.280794 5.511812 20.934221 -9.321422 0.000000 0.000000 0.000000 0.036869 -1.352007 2.948567 4.583445 6.839154 2.713152 5.415511 7.260524 -3.264397 -6.072925 -40.602049 -68.012777 -12.901252 -26.627913 -2.867525 0.000000 0.000000 0.000000 0.307616 -1.009139 3.400595 -1.628606 -1.618143 3.042867 -1.498046 4.098644 1.000028 7.137717 8.256182 77.678628 -6.167793 27.884369 5.360385 0.000000 0.000000 0.000000 
2.592352 101.100800 -3.904594 0.000000 0.000000 0.000000 -0.061096 -14.935614 -0.604538 -22.313410 19.825464 17.311313 25.473021 13.149816 -0.344078 6.228913 -1.289197 -4.627384 -2.759104 0.415010 -0.509177 0.000000 0.000000 0.000000 0.613559 -15.105257 -0.865821 -13.162026 -2.988134 1.620785 22.091608 1.206059 1.733443 -3.299347 0.910124 -4.007480 -2.006238 -1.150039 3.373435 0.000000 0.000000 0.000000 -1.020747 -18.937374 -2.064524 4.297495 -1.075668 0.271736 0.838831 -0.551732 3.183268 0.599981 1.446104 0.029841 0.000000 0.000000 0.000000 1.210429 -1.667571 2.756809 3.439385 -6.611282 -1.954449 4.415359 20.935665 -9.265726 0.000000 0.000000 0.000000 0.410075 -1.342885 2.878523 4.833032 6.794877 3.276349 5.782108 6.233360 -1.193707 -4.166221 -40.639581 -68.313797 -10.964818 -25.355206 -2.555060 0.000000 0.000000 0.000000 0.698617 -1.063011 3.382969 -1.423963 -1.108097 2.871159 -1.452976 6.031589 0.044634 6.299961 9.271572 76.723085 -4.784523 26.226569 4.342912 0.000000 0.000000 0.000000 
2.957407 100.110619 -4.106339 0.000000 0.000000 0.000000 -0.064284 -16.035206 -1.691441 -24.523012 21.768409 20.005860 26.891037 11.452131 -1.120225 5.362906 -1.372569 -5.676023 -1.571690 0.472324 -1.581448 0.000000 0.000000 0.000000 0.390829 -17.160915 -1.884511 -15.058351 -3.969612 1.291776 20.192850 1.875635 2.432977 0.527788 3.266882 -1.719634 -4.433746 -0.860560 1.634756 0.000000 0.000000 0.000000 -1.136665 -20.920034 -2.934466 5.771570 -1.471827 0.467148 1.458160 -0.855514 2.844515 0.775758 1.221616 -0.088672 0.000000 0.000000 0.000000 2.033353 -1.750517 2.494121 1.973986 -5.800554 -1.928612 1.775245 22.144283 -9.385814 0.000000 0.000000 0.000000 1.190253 -1.404151 2.377674 5.534799 6.234578 4.302642 5.778047 6.013868 1.316428 1.374278 -42.182340 -66.498920 -11.734594 -30.006476 -4.289616 0.000000 0.000000 0.000000 1.636637 -1.190606 2.999756 -1.062105 -0.434173 2.515385 -0.867237 6.539076 -0.963903 4.141983 12.092049 75.353413 -2.845819 25.072586 3.295041 0.000000 0.000000 0.000000 
3.309628 99.420746 -4.150402 0.000000 0.000000 0.000000 -0.199545 -18.576240 -3.193380 -28.119293 25.177643 24.455245 28.592082 9.155728 -1.996923 5.010658 -1.451014 -7.914268 -3.068361 0.553554 -1.833698 0.000000 0.000000 0.000000 0.108936 -20.333238 -3.498366 -17.112580 -5.538373 0.702846 19.059383 2.678314 3.115476 4.296223 6.319405 0.998646 -5.062241 -0.214467 -0.656074 0.000000 0.000000 0.000000 -1.066050 -23.591221 -4.075180 7.386551 -1.985830 0.737000 2.219834 -1.216567 2.302420 0.546269 1.151997 -0.332279 0.000000 0.000000 0.000000 3.008519 -1.944931 2.058468 0.291226 -4.616040 -2.126835 -1.766858 24.200909 -9.485459 0.000000 0.000000 0.000000 2.163406 -1.552945 1.611159 6.580742 5.711732 6.073933 5.489602 5.636581 3.205051 10.851098 -44.270718 -62.486272 -16.291960 -41.376579 -9.216137 0.000000 0.000000 0.000000 2.891683 -1.403045 2.385243 -0.602646 0.212231 2.143302 -0.017771 5.385930 -1.866720 1.135255 15.446425 73.843600 -0.921512 25.908181 2.530340 0.000000 0.000000 0.000000 
3.562418 99.005646 -3.810074 0.000000 0.000000 0.000000 -0.382438 -22.301987 -4.758582 -32.244087 29.616957 29.952835 30.327269 7.052388 -2.732682 4.612395 -0.796575 -9.787816 -5.807063 0.497625 -1.310238 0.000000 0.000000 0.000000 -0.193790 -24.074856 -5.300618 -18.708308 -7.300093 -0.233942 19.043209 3.083954 3.369110 6.191541 8.555597 2.995090 -5.022369 0.418943 -2.459228 0.000000 0.000000 0.000000 -0.710509 -26.806630 -5.245632 8.754014 -2.520899 0.994211 3.039627 -1.614995 1.688439 0.179771 1.404461 -0.679882 0.000000 0.000000 0.000000 3.960622 -2.214278 1.584894 -1.102013 -3.218387 -2.253992 -5.321082 26.766314 -9.472593 0.000000 0.000000 0.000000 3.147101 -1.741025 0.804769 7.921612 5.612875 8.452152 4.789733 4.311030 4.296562 23.893059 -45.475027 -57.075205 -29.063165 -57.727570 -22.157181 0.000000 0.000000 0.000000 4.228768 -1.673563 1.706870 -0.028246 0.813481 1.839764 0.752398 3.274251 -2.735928 -1.947783 17.994912 72.268073 0.527580 30.161692 2.184117 0.000000 0.000000 0.000000 
3.708464 98.691322 -3.430382 0.000000 0.000000 0.000000 -0.390567 -26.743850 -5.885153 -36.105589 34.515453 35.218918 31.937343 6.042336 -3.250717 2.533666 1.310652 -9.954342 -6.140913 0.302926 -1.110532 0.000000 0.000000 0.000000 -0.098757 -27.919582 -6.589189 -19.682015 -8.846587 -1.854775 20.073178 2.763082 2.914705 5.576136 8.889768 3.807863 -5.139949 0.777731 -2.890203 0.000000 0.000000 0.000000 -0.271504 -30.397784 -6.191062 9.561382 -2.970062 1.169980 3.816464 -2.027810 1.145024 0.427802 1.809597 -0.774664 0.000000 0.000000 0.000000 4.668847 -2.515798 1.166938 -2.090047 -1.899052 -2.127564 -8.231352 29.215506 -9.254978 0.000000 0.000000 0.000000 3.949172 -1.909669 0.193880 9.417410 6.121784 11.166913 3.341587 1.848975 4.469985 38.638793 -45.335811 -52.507578 -66.883944 -70.859381 -60.149159 0.000000 0.000000 0.000000 5.443820 -1.930616 1.127248 0.622202 1.409487 1.727020 1.336346 1.105878 -3.548192 -3.937222 18.596148 70.285058 1.255114 38.258581 2.249703 0.000000 0.000000 0.000000 
3.872359 98.264153 -3.411976 0.000000 0.000000 0.000000 -0.404395 -31.540342 -6.404482 -38.698677 39.245990 39.321983 32.957401 5.608890 -3.356280 -1.740266 4.261910 -8.972544 -3.996045 0.107053 -1.217503 0.000000 0.000000 0.000000 0.057903 -31.919933 -7.058203 -20.588504 -9.979383 -4.483792 22.774192 1.763095 2.007742 3.270352 7.156470 3.292203 -5.063290 0.690414 -1.326782 0.000000 0.000000 0.000000 0.174192 -34.021691 -6.718148 9.793797 -3.265799 1.118224 4.480291 -2.399338 0.735280 1.173654 2.609588 -0.576980 0.000000 0.000000 0.000000 5.030026 -2.775539 0.855219 -2.679567 -0.840779 -1.697136 -10.023671 31.139136 -8.879631 0.000000 0.000000 0.000000 4.505622 -2.014161 -0.163062 10.817105 7.303162 13.705114 1.857302 -1.670282 4.226664 50.876525 -44.531058 -51.188095 -118.912624 -68.376197 -112.390326 0.000000 0.000000 0.000000 6.383333 -2.107673 0.713425 1.263008 2.058913 1.807773 2.211284 -0.721794 -4.400210 -4.301025 17.239580 67.812331 1.227770 49.145557 2.711615 0.000000 0.000000 0.000000 
4.161077 97.586037 -3.707413 0.000000 0.000000 0.000000 -0.553510 -36.161211 -6.220523 -39.219387 43.076921 41.273262 33.500691 4.993378 -3.062735 -7.029327 7.161661 -7.746319 -2.022127 -0.027167 -1.358700 0.000000 0.000000 0.000000 -0.037668 -35.926249 -6.734391 -21.939432 -11.103871 -8.477160 27.359542 0.363472 0.977705 0.588195 3.723996 1.972893 -4.825974 0.161363 1.856538 0.000000 0.000000 0.000000 0.456363 -37.272588 -6.712560 9.624525 -3.337673 0.811083 4.940092 -2.640465 0.451477 1.988363 4.221760 -0.391762 0.000000 0.000000 0.000000 4.987438 -2.902495 0.608618 -2.888057 -0.302767 -0.863768 -10.460512 32.576061 -8.467473 0.000000 0.000000 0.000000 4.862730 -2.000578 -0.299897 12.017445 8.860781 15.328179 0.319401 -4.964046 3.586368 57.281078 -43.952759 -53.435199 -137.026504 -60.702753 -130.482226 0.000000 0.000000 0.000000 6.900744 -2.145276 0.410737 1.851488 2.793130 1.883583 3.176860 -1.945373 -4.916448 -2.427341 15.176950 64.801037 0.515401 59.948577 3.518349 0.000000 0.000000 0.000000 
4.476240 96.632347 -4.365097 0.000000 0.000000 0.000000 -0.946015 -40.786478 -5.497385 -38.389307 45.081509 41.367188 34.482702 4.333390 -2.658447 -11.047835 9.292236 -6.580430 -1.894292 0.008646 -1.528229 0.000000 0.000000 0.000000 -0.538345 -39.746797 -5.875742 -23.788425 -12.450754 -13.562550 33.139190 -0.909332 0.146728 -1.485290 -0.356497 1.035615 -4.828632 -0.651305 5.534544 0.000000 0.000000 0.000000 0.380236 -40.024495 -6.301335 9.283606 -3.143387 0.254281 5.147666 -2.671379 0.218026 2.546330 5.823514 -0.669527 0.000000 0.000000 0.000000 4.638224 -2.872843 0.342411 -2.826655 -0.246982 0.195415 -9.570784 33.642582 -8.148463 0.000000 0.000000 0.000000 5.019176 -1.876768 -0.328901 12.886026 10.396609 15.870248 -0.906130 -6.941485 2.483150 57.050798 -42.773711 -58.363891 -138.089677 -58.320957 -131.002113 0.000000 0.000000 0.000000 6.960606 -2.036081 0.153798 2.283051 3.481129 1.995867 4.105015 -2.609371 -4.967090 1.360779 13.803001 61.626673 -0.519279 67.762880 4.366053 0.000000 0.000000 0.000000 
